<svg width="49" height="48" viewBox="0 0 49 48" fill="none" xmlns="http://www.w3.org/2000/svg">
<path d="M24.7802 12C18.1532 12 12.7802 17.373 12.7802 24C12.7802 30.627 18.1532 36 24.7802 36C31.4072 36 36.7801 30.627 36.7801 24C36.7801 17.373 31.4072 12 24.7802 12ZM24.7802 30C21.4712 30 18.7801 27.309 18.7801 24C18.7801 20.691 21.4712 18 24.7802 18C28.0891 18 30.7802 20.691 30.7802 24C30.7802 27.309 28.0891 30 24.7802 30ZM33.7802 0H15.7802C7.49115 0 0.780151 6.711 0.780151 15V33C0.780151 41.286 7.49115 48 15.7802 48H33.7802C42.0662 48 48.7802 41.286 48.7802 33V15C48.7802 6.711 42.0662 0 33.7802 0ZM42.7801 33C42.7801 37.959 38.7392 42 33.7802 42H15.7802C10.8212 42 6.78015 37.959 6.78015 33V15C6.78015 10.041 10.8212 6 15.7802 6H33.7802C38.7392 6 42.7801 10.041 42.7801 15V33ZM36.7801 9C35.1211 9 33.7802 10.341 33.7802 12C33.7802 13.659 35.1211 15 36.7801 15C38.4391 15 39.7801 13.659 39.7801 12C39.7801 10.341 38.4391 9 36.7801 9Z" fill="white"/>
</svg>
