<svg width="49" height="48" viewBox="0 0 49 48" fill="none" xmlns="http://www.w3.org/2000/svg">
<path d="M48.7802 9.47658C47.0133 10.2595 45.1174 10.7905 43.1255 11.0275C45.1594 9.80955 46.7193 7.87767 47.4542 5.57982C45.5524 6.70775 43.4435 7.5267 41.1996 7.97067C39.4027 6.05679 36.8439 4.85986 34.0121 4.85986C28.5734 4.85986 24.1637 9.26959 24.1637 14.7052C24.1637 15.4762 24.2507 16.2292 24.4187 16.9491C16.2352 16.5381 8.97864 12.6174 4.12194 6.65975C3.276 8.11466 2.79003 9.80655 2.79003 11.6124C2.79003 15.0292 4.52692 18.044 7.16975 19.8079C5.55885 19.7569 4.04095 19.313 2.71203 18.575V18.698C2.71203 23.4677 6.10782 27.4485 10.6105 28.3544C9.78259 28.5794 8.91264 28.7024 8.0157 28.7024C7.37974 28.7024 6.76478 28.6394 6.16182 28.5254C7.41574 32.4371 11.0515 35.284 15.3592 35.365C11.9905 38.0048 7.74272 39.5797 3.129 39.5797C2.33405 39.5797 1.5511 39.5317 0.780151 39.4417C5.13888 42.2345 10.3136 43.8664 15.8752 43.8664C33.9881 43.8664 43.8935 28.8614 43.8935 15.8482C43.8935 15.4222 43.8845 14.9962 43.8635 14.5733C45.7893 13.1843 47.4602 11.4505 48.7802 9.47658Z" fill="white"/>
</svg>
