<svg width="48" height="48" viewBox="0 0 48 48" fill="none" xmlns="http://www.w3.org/2000/svg">
<path d="M19.0046 31.1041V16.8954L31.4901 23.9997L19.0046 31.1041ZM46.7827 12.425C46.2333 10.3555 44.6117 8.72503 42.5572 8.17257C38.8303 7.16919 23.8901 7.16919 23.8901 7.16919C23.8901 7.16919 8.94982 7.16919 5.22297 8.17257C3.16842 8.72503 1.54688 10.3555 0.997411 12.425C0 16.1757 0 23.9997 0 23.9997C0 23.9997 0 31.8237 0.997411 35.5745C1.54688 37.644 3.16842 39.2745 5.22297 39.8269C8.94982 40.8303 23.8901 40.8303 23.8901 40.8303C23.8901 40.8303 38.8303 40.8303 42.5572 39.8269C44.6117 39.2745 46.2333 37.644 46.7827 35.5745C47.7802 31.8237 47.7802 23.9997 47.7802 23.9997C47.7802 23.9997 47.7802 16.1757 46.7827 12.425Z" fill="white"/>
</svg>
